# xmcd CD database file
#
# Track frame offsets:
#	150
#	17739
#	36923
#	59164
#	73958
#	101133
#	116975
#	137857
#	150633
#	169293
#	184889
#
# Disc length: 2726 seconds
#
# Revision: 0
# Processed by: cddbd v1.5.2PL0 Copyright (c) Steve Scherf et al.
# Submitted via: CDex 1.70beta2
#
DISCID=ad0aa40b
DTITLE=Carmen Mc Rae - can't hide love
DYEAR=2012
DGENRE=Jazz
TTITLE0=Can't hide love
TTITLE1=The man I love
TTITLE2=Only women bleed
TTITLE3=I wish you well
TTITLE4=All by myself
TTITLE5=Music
TTITLE6=Lost up in loving you
TTITLE7=You're everything
TTITLE8=would you believe
TTITLE9=a child is born
TTITLE10=only women bleed (single version)
EXTD=YEAR: 2012
EXTT0=
EXTT1=
EXTT2=
EXTT3=
EXTT4=
EXTT5=
EXTT6=
EXTT7=
EXTT8=
EXTT9=
EXTT10=
PLAYORDER=
